<svg xmlns="http://www.w3.org/2000/svg" xmlns:xlink="http://www.w3.org/1999/xlink" viewBox="0 0 527.87 217.64"><defs><style>.cls-1,.cls-2{fill:none;}.cls-2{stroke:#2e56a3;stroke-linecap:round;stroke-linejoin:round;stroke-width:0;}.cls-3{fill:#2e56a3;}.cls-4,.cls-5{fill:#2d2e83;}.cls-4{opacity:0.2;}.cls-6{fill:url(#linear-gradient);}.cls-7{fill:url(#linear-gradient-2);}.cls-8{fill:#094d68;opacity:0;}.cls-9{fill:#3aaa35;}</style><linearGradient id="linear-gradient" x1="24.54" y1="45.74" x2="223.45" y2="45.74" gradientUnits="userSpaceOnUse"><stop offset="0" stop-color="#c99613"/><stop offset="0.03" stop-color="#cd9914"/><stop offset="0.21" stop-color="#e2ac1d"/><stop offset="0.41" stop-color="#f1ba23"/><stop offset="0.65" stop-color="#fac226"/><stop offset="1" stop-color="#fdc427"/></linearGradient><linearGradient id="linear-gradient-2" y1="109.82" x2="380.17" y2="109.82" gradientUnits="userSpaceOnUse"><stop offset="0" stop-color="#3859a5"/><stop offset="0.34" stop-color="#375ca7"/><stop offset="0.59" stop-color="#3265af"/><stop offset="0.81" stop-color="#2a75bb"/><stop offset="0.99" stop-color="#2189ca"/></linearGradient></defs><title>Recurso 1ColorLogo</title><g id="Capa_2" data-name="Capa 2"><g id="Layer_1" data-name="Layer 1"><path class="cls-1" d="M265.88,117.11l-3.31,0s1.25,0,3.33.11h0Z"/><polygon class="cls-1" points="265.61 115.74 299.07 115.58 289.33 67.53 262.57 117.13 265.88 117.11 265.61 115.74"/><path class="cls-1" d="M266.36,117.27l-.46,0Z"/><polygon class="cls-1" points="299.87 118.92 299.87 118.92 299.07 115.58 299.07 115.58 299.35 116.98 299.87 118.92"/><path class="cls-1" d="M294.56,119l-28.2-1.69c8.8.55,30.44,3.25,37.46,16.51l-3.95-14.86Z"/><line class="cls-2" x1="262.57" y1="117.13" x2="265.88" y2="117.11"/><path class="cls-3" d="M348.14,92.16l-22.73-90-51.31.43L205.52,119l-.15-.76q-3.31-15.64-15.34-24-13.29-9.14-43.57-9l-52.27.26q-11.94.06-13-5.9a15,15,0,0,1,.37-5.88A30.7,30.7,0,0,1,85,64.9C46.15,67.26,30.47,83,25.6,89.54a56.07,56.07,0,0,0,.76,7.74c4.16,24.38,24,36.61,59.45,36.49l47.09-.15q12.25,0,15.4,2.91a3.16,3.16,0,0,1,.61,1.05q1.05,2.89-.46,10.32-2.23,10.72-10.3,14.88-6.77,3.58-20.79,3.61l-105,.21-12,51H208.6l26.35-50,74.71-.15,10.23,50.1h60.62Zm-81.78,25.11-.46,0c-2.08-.12-3.33-.11-3.33-.11l26.76-49.59,9.74,48h0l.8,3.34h0l3.95,14.86C296.8,120.52,275.16,117.82,266.36,117.27Z"/><path class="cls-4" d="M356.16,217.61,337.75,211l-30-119.92s11.15-45.15,24.2-61l48.55,187.53Z"/><polygon class="cls-5" points="356.15 210.97 380.51 217.61 378.79 210.97 356.15 210.97"/><path class="cls-6" d="M111,51.72l-.06.05,2-.05,101.72-.65,9.51-47.84-112.71.93C65.55,4.54,37.8,25.22,27.92,66.77a88.5,88.5,0,0,0-2.68,21.48C43.62,52.34,111,51.72,111,51.72Z"/><path class="cls-7" d="M347.8,92.11l-22.74-90-51.3.43L205.17,119c0-.25-.09-.51-.14-.76q-3.32-15.64-15.34-24-13.29-9.14-43.57-9l-52.27.27q-12,.06-13-5.9a14.92,14.92,0,0,1,.37-5.89,30.74,30.74,0,0,1,3.44-8.9C45.81,67.21,30.13,83,25.26,89.48A54.57,54.57,0,0,0,26,97.23c4.16,24.37,24,36.61,59.45,36.49l47.09-.15q12.25,0,15.4,2.91a3.16,3.16,0,0,1,.61,1.05q1.05,2.9-.46,10.32-2.24,10.72-10.3,14.88Q131,166.32,117,166.34l-105,.21-12,51H208.26l26.35-49.95,74.71-.15,10.23,50.1h60.62Zm-79.88,24.94-5.7,0,.18-.32h0L289,67.48l10,49.45h-.24l4.38,16.47C296.67,121.16,277.73,117.91,267.92,117.05Z"/><path class="cls-8" d="M355.81,217.56H337.9L307.42,91s11.15-45.15,24.2-61l48.55,187.53Z"/><path class="cls-9" d="M430.81,48l91.82-.59L527.87,0,431,.8c-58.12.48-93.84,30.52-107.54,91.39l32.36,125.45h148L519,80.64l-111.18.58L401,131l54.84-.18L451.66,165l-42.39.08q-16.09,0-22.88-7.75A26,26,0,0,1,381.28,147q-3.82-14-.37-38.69C386.56,68.08,403.15,48.15,430.81,48Z"/></g></g></svg>