<svg xmlns="http://www.w3.org/2000/svg" viewBox="0 0 554.68 229.17"><defs><style>.cls-1{fill:#dadada;}</style></defs><title>Recurso 1Loader</title><g id="Capa_2" data-name="Capa 2"><g id="Capa_1-2" data-name="Capa 1"><path class="cls-1" d="M554.93.25l-5,51.56H445.28s-31.83,7-38,38.24c0,0-20.72,68.78,5.34,80.53,0,0,4.92,3.2,13.46,3.2h46.57l3.63-34.6-54.9-.86,7.9-54.25H546.31L530.72,229.42H334l-10.74-51.18-76.2.24-28.3,50.94H.25l10.87-54.33h123s20-.38,19.68-24.12c0,0,.68-10-8-8.87H75.32s-48.9-.56-50.39-47L25,95c1.14-1.83,14.31-21.5,59-25.72,0,0,9.52-1.49,4.12,4.51,0,0-9.33,13.89,3.8,17.22h82s34.48-.5,39,29.44c0,0,3.19,3.72,6.23-.4L287.88,4.85h53.21l12.38,45.2s2.32,7.48,5.14-.34c0,0,15.11-45.46,80.35-49.46ZM314.78,133.4,301.91,78,277,123.2C301.69,120.93,314.78,133.4,314.78,133.4Z" transform="translate(-0.25 -0.25)"/><path class="cls-1" d="M237.29,3.93,227.5,55.78S56.18,37.78,25,95l-.08.14S19,25.5,87.18,7.55c0,0,10.33-3.08,36.8-3.62Z" transform="translate(-0.25 -0.25)"/></g></g></svg>